<svg width="512" height="512" viewBox="0 0 512 512" fill="none" xmlns="http://www.w3.org/2000/svg">
<g clip-path="url(#clip0_1_5)">
<path d="M256 512C397.385 512 512 397.385 512 256C512 114.615 397.385 0 256 0C114.615 0 0 114.615 0 256C0 397.385 114.615 512 256 512Z" fill="#409B95"/>
<path d="M220.8 106.88C214.536 106.914 208.404 108.691 203.092 112.011C197.78 115.331 193.496 120.064 190.72 125.68C197.791 128.693 203.542 134.15 206.921 141.054C210.3 147.958 211.08 155.848 209.12 163.28C208.929 164.431 208.331 165.476 207.436 166.224C206.541 166.973 205.407 167.376 204.24 167.36H203.36C202.711 167.245 202.092 167.001 201.538 166.644C200.984 166.287 200.507 165.823 200.135 165.279C199.762 164.735 199.502 164.123 199.369 163.478C199.236 162.832 199.233 162.167 199.36 161.52C200.225 158.657 200.493 155.646 200.147 152.675C199.801 149.704 198.849 146.836 197.349 144.248C195.848 141.661 193.833 139.409 191.426 137.632C189.02 135.855 186.275 134.592 183.36 133.92C183.068 133.956 182.772 133.956 182.48 133.92C177.974 131.707 173.02 130.557 168 130.56C159.116 130.581 150.603 134.119 144.321 140.401C138.039 146.683 134.501 155.196 134.48 164.08C134.491 168.626 135.444 173.121 137.28 177.28V177.76C137.805 179.325 138.644 180.767 139.744 181.998C140.845 183.228 142.184 184.222 143.681 184.918C145.178 185.614 146.801 185.998 148.452 186.047C150.102 186.095 151.745 185.807 153.28 185.2C154.522 184.758 155.887 184.821 157.084 185.374C158.28 185.928 159.212 186.928 159.68 188.16C159.909 188.785 160.012 189.449 159.982 190.114C159.953 190.778 159.793 191.431 159.51 192.033C159.227 192.636 158.828 193.176 158.336 193.624C157.843 194.071 157.267 194.416 156.64 194.64C154.198 195.498 151.628 195.931 149.04 195.92C145.239 195.895 141.508 194.897 138.203 193.02C134.898 191.144 132.129 188.451 130.16 185.2C125.35 186.57 120.908 188.999 117.159 192.308C113.41 195.618 110.449 199.724 108.493 204.327C106.537 208.929 105.636 213.911 105.855 218.907C106.074 223.903 107.408 228.787 109.76 233.2C115.88 230.582 122.726 230.197 129.101 232.113C135.476 234.028 140.976 238.122 144.64 243.68C145.372 244.773 145.64 246.111 145.385 247.402C145.129 248.692 144.372 249.828 143.28 250.56C142.474 251.172 141.492 251.509 140.48 251.52C139.677 251.511 138.888 251.31 138.178 250.935C137.468 250.559 136.859 250.019 136.4 249.36C135.086 247.322 133.382 245.564 131.387 244.186C129.391 242.809 127.143 241.839 124.771 241.334C122.399 240.828 119.951 240.797 117.567 241.24C115.183 241.684 112.911 242.595 110.88 243.92C105.6 246.921 101.367 251.471 98.754 256.954C96.1408 262.437 95.2728 268.59 96.2671 274.582C97.2614 280.573 100.07 286.116 104.314 290.461C108.558 294.806 114.033 297.745 120 298.88C120.867 299.03 121.677 299.415 122.34 299.993C123.003 300.572 123.494 301.321 123.76 302.16C124.04 303.005 124.091 303.909 123.909 304.78C123.726 305.651 123.316 306.459 122.72 307.12C118.43 311.914 115.607 317.838 114.585 324.189C113.563 330.539 114.386 337.05 116.955 342.947C119.525 348.845 123.733 353.88 129.08 357.456C134.427 361.032 140.689 362.998 147.12 363.12C153.28 361.68 168.96 356.24 170.4 348.8C170.526 348.159 170.777 347.549 171.139 347.006C171.501 346.462 171.966 345.994 172.508 345.63C173.05 345.266 173.659 345.013 174.299 344.884C174.94 344.755 175.599 344.754 176.24 344.88C176.881 345.006 177.491 345.257 178.034 345.619C178.578 345.981 179.046 346.446 179.41 346.988C179.774 347.53 180.027 348.139 180.156 348.779C180.285 349.42 180.286 350.079 180.16 350.72C177.76 363.2 161.28 369.44 152.48 372C152.617 377.059 154.046 382 156.631 386.351C159.215 390.703 162.87 394.322 167.247 396.863C171.624 399.404 176.578 400.784 181.639 400.871C186.699 400.958 191.698 399.749 196.16 397.36C196.528 396.861 197.026 396.473 197.6 396.24C199.791 395.195 201.754 393.728 203.378 391.924C205.002 390.121 206.254 388.014 207.064 385.726C207.874 383.438 208.225 381.013 208.097 378.589C207.969 376.165 207.366 373.79 206.32 371.6C206.019 371.013 205.839 370.372 205.788 369.714C205.738 369.056 205.82 368.395 206.029 367.77C206.237 367.144 206.569 366.566 207.003 366.07C207.438 365.574 207.967 365.169 208.56 364.88C209.759 364.3 211.139 364.219 212.399 364.653C213.658 365.088 214.694 366.004 215.28 367.2C218.015 372.687 218.862 378.923 217.69 384.94C216.519 390.958 213.394 396.42 208.8 400.48C212.465 402.74 216.578 404.176 220.854 404.688C225.13 405.199 229.466 404.774 233.561 403.442C237.655 402.11 241.412 399.903 244.568 396.974C247.725 394.045 250.206 390.464 251.84 386.48V265.92C248.874 263.103 245.03 261.391 240.952 261.07C236.874 260.75 232.81 261.841 229.44 264.16C228.338 264.884 227 265.154 225.703 264.916C224.407 264.678 223.252 263.948 222.48 262.88C221.784 261.762 221.554 260.416 221.838 259.13C222.122 257.844 222.898 256.721 224 256C228.069 253.205 232.813 251.553 237.738 251.215C242.662 250.878 247.588 251.867 252 254.08V206.08C249.046 203.252 245.213 201.52 241.139 201.17C237.064 200.821 232.992 201.876 229.6 204.16C229.088 204.674 228.47 205.069 227.789 205.319C227.108 205.568 226.38 205.664 225.658 205.602C224.935 205.54 224.235 205.319 223.607 204.957C222.979 204.595 222.438 204.099 222.022 203.505C221.606 202.911 221.325 202.233 221.2 201.518C221.074 200.804 221.107 200.071 221.296 199.37C221.484 198.67 221.824 198.02 222.292 197.465C222.759 196.91 223.342 196.465 224 196.16C228.083 193.394 232.829 191.765 237.75 191.442C242.672 191.118 247.59 192.112 252 194.32V128.48C249.62 122.129 245.356 116.658 239.78 112.797C234.204 108.937 227.582 106.872 220.8 106.88ZM170.96 314.88H170C166.328 314.165 162.835 312.726 159.726 310.647C156.616 308.567 153.952 305.889 151.889 302.768C149.826 299.648 148.405 296.147 147.71 292.472C147.015 288.796 147.059 285.018 147.84 281.36C147.966 280.719 148.217 280.109 148.579 279.566C148.941 279.022 149.406 278.554 149.948 278.19C150.49 277.826 151.099 277.573 151.739 277.444C152.38 277.315 153.039 277.314 153.68 277.44C154.321 277.566 154.931 277.817 155.474 278.179C156.018 278.541 156.486 279.006 156.85 279.548C157.214 280.09 157.467 280.699 157.596 281.339C157.725 281.98 157.726 282.639 157.6 283.28C157.097 285.655 157.069 288.106 157.518 290.492C157.966 292.877 158.882 295.151 160.213 297.181C161.545 299.211 163.264 300.958 165.273 302.32C167.283 303.683 169.541 304.634 171.92 305.12C172.562 305.244 173.172 305.494 173.717 305.856C174.262 306.217 174.73 306.682 175.094 307.225C175.458 307.768 175.712 308.377 175.84 309.018C175.968 309.659 175.968 310.319 175.84 310.96C175.666 312.126 175.076 313.189 174.179 313.954C173.282 314.719 172.139 315.133 170.96 315.12V314.88ZM167.92 226.88C166.827 227.612 165.489 227.88 164.198 227.624C162.908 227.369 161.772 226.612 161.04 225.52C160.296 224.424 160.014 223.08 160.253 221.778C160.493 220.475 161.235 219.319 162.32 218.56C165.433 216.488 168.924 215.052 172.593 214.332C176.262 213.613 180.037 213.626 183.701 214.369C187.366 215.112 190.847 216.572 193.946 218.664C197.045 220.756 199.701 223.439 201.76 226.56C202.504 227.656 202.787 229 202.547 230.302C202.307 231.605 201.565 232.761 200.48 233.52C199.637 234.11 198.629 234.418 197.6 234.4C196.797 234.391 196.008 234.19 195.298 233.815C194.588 233.439 193.979 232.899 193.52 232.24C192.206 230.202 190.502 228.444 188.507 227.066C186.511 225.689 184.263 224.72 181.891 224.214C179.519 223.708 177.071 223.677 174.687 224.12C172.303 224.564 170.031 225.475 168 226.8L167.92 226.88ZM225.6 304C225.783 305.314 225.441 306.648 224.647 307.711C223.853 308.775 222.672 309.482 221.36 309.68H217.28C210.441 309.661 203.842 307.161 198.707 302.644C193.572 298.127 190.251 291.9 189.36 285.12C189.287 283.867 189.684 282.632 190.473 281.656C191.262 280.68 192.388 280.034 193.628 279.844C194.869 279.654 196.136 279.934 197.181 280.628C198.226 281.323 198.975 282.383 199.28 283.6C199.566 286.014 200.329 288.346 201.526 290.462C202.722 292.578 204.328 294.434 206.249 295.923C208.17 297.412 210.368 298.504 212.715 299.136C215.062 299.767 217.511 299.925 219.92 299.6C220.584 299.499 221.262 299.534 221.912 299.703C222.563 299.872 223.172 300.171 223.703 300.583C224.234 300.994 224.676 301.509 225.002 302.097C225.328 302.684 225.532 303.332 225.6 304ZM290.4 174.08L297.04 163.36C298.275 163.643 299.534 163.803 300.8 163.84C304.534 163.84 308.184 162.733 311.289 160.658C314.394 158.584 316.814 155.635 318.243 152.185C319.672 148.735 320.046 144.939 319.317 141.277C318.589 137.614 316.791 134.25 314.15 131.61C311.51 128.969 308.146 127.171 304.483 126.443C300.821 125.714 297.025 126.088 293.575 127.517C290.125 128.946 287.176 131.366 285.102 134.471C283.027 137.576 281.92 141.226 281.92 144.96C281.953 149.148 283.39 153.205 286 156.48L281.28 164.48H260.56V177.44H284.56C285.75 177.478 286.926 177.184 287.958 176.591C288.99 175.997 289.835 175.128 290.4 174.08Z" fill="white"/>
<path d="M332.4 208.72L350.64 187.36C351.666 186.185 352.234 184.68 352.24 183.12V162.56C356.4 161.029 359.889 158.083 362.096 154.238C364.302 150.393 365.085 145.895 364.307 141.53C363.53 137.166 361.241 133.214 357.843 130.368C354.445 127.521 350.153 125.962 345.72 125.962C341.287 125.962 336.995 127.521 333.597 130.368C330.199 133.214 327.91 137.166 327.133 141.53C326.355 145.895 327.138 150.393 329.344 154.238C331.551 158.083 335.04 161.029 339.2 162.56V180.72L324.48 198H260.48V211.04H327.36C328.318 211.04 329.264 210.832 330.134 210.432C331.004 210.031 331.777 209.447 332.4 208.72Z" fill="white"/>
<path d="M336.72 237.52L362.48 208H379.52C381.042 212.145 383.974 215.622 387.803 217.821C391.631 220.021 396.112 220.803 400.459 220.03C404.806 219.257 408.742 216.979 411.578 213.594C414.414 210.21 415.968 205.935 415.968 201.52C415.968 197.105 414.414 192.83 411.578 189.446C408.742 186.061 404.806 183.783 400.459 183.01C396.112 182.237 391.631 183.019 387.803 185.219C383.974 187.418 381.042 190.895 379.52 195.04H359.52C358.591 195.027 357.671 195.221 356.827 195.608C355.982 195.996 355.235 196.567 354.64 197.28L328.88 226.8H260.56V240H331.84C332.785 239.968 333.712 239.729 334.555 239.301C335.398 238.872 336.137 238.264 336.72 237.52ZM300.8 348.16C299.534 348.197 298.275 348.357 297.04 348.64L290.4 337.92C289.82 336.98 289.007 336.206 288.04 335.674C287.073 335.141 285.984 334.867 284.88 334.88H260.88V347.84H281.6L286.32 355.84C284.486 358.216 283.247 360.998 282.708 363.951C282.169 366.904 282.345 369.944 283.221 372.815C284.097 375.686 285.648 378.306 287.745 380.455C289.841 382.604 292.421 384.22 295.27 385.167C298.119 386.114 301.153 386.366 304.118 385.9C307.084 385.434 309.895 384.265 312.316 382.49C314.738 380.716 316.699 378.387 318.035 375.699C319.372 373.011 320.046 370.042 320 367.04C320 364.533 319.502 362.052 318.533 359.74C317.564 357.429 316.145 355.333 314.358 353.575C312.57 351.818 310.451 350.434 308.123 349.504C305.796 348.575 303.306 348.118 300.8 348.16Z" fill="white"/>
<path d="M352 349.44V328.88C352.024 327.329 351.484 325.822 350.48 324.64L332.24 303.28C331.622 302.573 330.859 302.008 330.003 301.621C329.148 301.235 328.219 301.037 327.28 301.04H260.56V314H324.56L339.28 331.28V349.44C335.113 350.963 331.615 353.904 329.4 357.749C327.186 361.593 326.396 366.095 327.169 370.464C327.942 374.832 330.229 378.789 333.629 381.64C337.028 384.491 341.323 386.053 345.76 386.053C350.197 386.053 354.492 384.491 357.891 381.64C361.291 378.789 363.578 374.832 364.351 370.464C365.124 366.095 364.334 361.593 362.12 357.749C359.905 353.904 356.407 350.963 352.24 349.44H352Z" fill="white"/>
<path d="M397.12 291.76C393.289 291.764 389.55 292.938 386.404 295.126C383.259 297.313 380.857 300.409 379.52 304H362.48L336.72 274.48C336.125 273.767 335.378 273.196 334.533 272.808C333.689 272.421 332.769 272.227 331.84 272.24H260.56V285.2H328.88L354.64 314.72C355.235 315.433 355.982 316.004 356.827 316.392C357.671 316.779 358.591 316.973 359.52 316.96H379.52C380.705 320.188 382.754 323.03 385.442 325.175C388.13 327.32 391.355 328.686 394.766 329.126C398.176 329.565 401.642 329.061 404.786 327.667C407.93 326.273 410.632 324.044 412.597 321.222C414.562 318.399 415.715 315.092 415.931 311.66C416.147 308.227 415.417 304.802 413.821 301.755C412.225 298.709 409.824 296.159 406.879 294.382C403.935 292.606 400.559 291.671 397.12 291.68V291.76Z" fill="white"/>
</g>
<defs>
<clipPath id="clip0_1_5">
<rect width="512" height="512" fill="white"/>
</clipPath>
</defs>
</svg>
