<svg width="24" height="24" viewBox="0 0 24 24" fill="none" xmlns="http://www.w3.org/2000/svg">
<path d="M2 12C2 17.5228 6.47715 22 12 22C17.5228 22 22 17.5228 22 12C22 6.47715 17.5228 2 12 2C6.47715 2 2 6.47715 2 12Z" stroke="#C772CF" stroke-width="1.5" stroke-linecap="round"/>
<path d="M9.54545 15.1735C10.0909 16.2633 10.6364 16.5903 11.1818 16.8082C11.6151 16.9814 12.5725 17.1352 13.3636 16.8082C14.2027 16.4729 15 15.7182 15 14.6285C15 13.5388 14.6961 12.9321 13.9091 12.449C13.9091 12.449 13.225 12.0061 12.2727 11.9728C11.3205 11.9395 10.7129 11.8265 10.0909 11.4529C9.30385 10.9802 9 10.3866 9 9.32038C9 8.25419 9.79727 7.51572 10.6364 7.18764C11.4275 6.86775 12.3849 7.01823 12.8182 7.18764C13.3636 7.4009 13.9091 7.7208 14.4545 8.78711" stroke="#C772CF" stroke-width="1.5" stroke-linecap="round" stroke-linejoin="round"/>
<path d="M12 6V7" stroke="#C772CF" stroke-width="1.5" stroke-linecap="round"/>
<path d="M12 17V18" stroke="#C772CF" stroke-width="1.5" stroke-linecap="round" stroke-linejoin="round"/>
</svg>
