<svg xmlns="http://www.w3.org/2000/svg" version="1.1" xmlns:xlink="http://www.w3.org/1999/xlink"
    xmlns:svgjs="http://svgjs.com/svgjs" width="512" height="512" x="0" y="0" viewBox="0 0 32 32"
    style="enable-background:new 0 0 512 512" xml:space="preserve" class="">
    <g>
        <g data-name="Layer 2">
            <path
                d="M13.506 15.536a1 1 0 0 0 .707-1.871A5 5 0 1 1 21 9a4.823 4.823 0 0 1-.29 1.667 1 1 0 0 0 1.879.686A6.834 6.834 0 0 0 23 9a7 7 0 1 0-9.494 6.536zM14.26 28H5.02a1.027 1.027 0 0 1-.838-.427.9.9 0 0 1-.141-.823 11.048 11.048 0 0 1 8.967-7.439 1 1 0 1 0-.276-1.982 13.063 13.063 0 0 0-10.594 8.8 2.9 2.9 0 0 0 .427 2.617A3.045 3.045 0 0 0 5.02 30h9.24a1 1 0 0 0 0-2z"
                fill="#419b93" data-original="#000000" class=""></path>
            <path d="M22 14a8 8 0 1 0 8 8 8.009 8.009 0 0 0-8-8zm0 14a6 6 0 1 1 6-6 6.006 6.006 0 0 1-6 6z"
                fill="#419b93" data-original="#000000" class=""></path>
            <path
                d="M22.5 21h-1a.5.5 0 0 1 0-1H23a1 1 0 0 0 0-2 1 1 0 0 0-2 0v.051A2.5 2.5 0 0 0 21.5 23h1a.5.5 0 0 1 0 1H21a1 1 0 0 0 0 2 1 1 0 0 0 2 0v-.051A2.5 2.5 0 0 0 22.5 21z"
                fill="#419b93" data-original="#000000" class=""></path>
        </g>
    </g>
</svg>