<svg width="512" height="512" viewBox="0 0 512 512" fill="none" xmlns="http://www.w3.org/2000/svg">
<path d="M192 442.667C183.253 442.667 176 435.413 176 426.667V334.933C176 326.187 183.253 318.933 192 318.933C200.747 318.933 208 326.187 208 334.933V426.667C208 435.413 200.747 442.667 192 442.667ZM256 269.867H42.6667C33.92 269.867 26.6667 262.613 26.6667 253.867C26.6667 245.12 33.92 237.867 42.6667 237.867H256C264.747 237.867 272 245.12 272 253.867C272 262.613 264.747 269.867 256 269.867Z" fill="#E8A170"/>
<path d="M256 442.667H126.933C118.187 442.667 110.933 435.413 110.933 426.667C110.933 417.92 118.187 410.667 126.933 410.667H256C264.747 410.667 272 417.92 272 426.667C272 435.413 264.747 442.667 256 442.667Z" fill="#E8A170"/>
<path d="M362.88 287.573C341.547 287.573 324.053 270.08 324.053 248.747C324.053 227.413 341.547 209.92 362.88 209.92C384.213 209.92 401.707 227.413 401.707 248.747C401.707 270.08 384.213 287.573 362.88 287.573ZM362.88 241.92C359.04 241.92 356.053 244.907 356.053 248.747C356.053 252.587 359.04 255.573 362.88 255.573C366.72 255.573 369.707 252.587 369.707 248.747C369.707 244.907 366.72 241.92 362.88 241.92Z" fill="#E8A170"/>
<path d="M256.427 350.933H128C51.2 350.933 26.6667 326.4 26.6667 249.6V128C26.6667 51.2 51.2 26.6667 128 26.6667H341.333C418.133 26.6667 442.667 51.2 442.667 128V166.187C442.667 170.667 440.747 175.147 437.333 178.133C433.92 181.12 429.44 182.613 424.747 181.973C420.053 181.333 414.507 181.12 408.533 181.12H317.227C280.32 181.12 272.427 189.013 272.427 225.92V334.933C272.427 343.68 265.173 350.933 256.427 350.933ZM128 58.6667C68.48 58.6667 58.6667 68.48 58.6667 128V249.6C58.6667 309.12 68.48 318.933 128 318.933H240.427V225.92C240.427 171.307 262.613 149.12 317.227 149.12H410.667V128C410.667 68.48 400.853 58.6667 341.333 58.6667H128Z" fill="#E8A170"/>
<path d="M362.88 287.573C341.547 287.573 324.053 270.08 324.053 248.747C324.053 227.413 341.547 209.92 362.88 209.92C384.213 209.92 401.707 227.413 401.707 248.747C401.707 270.08 384.213 287.573 362.88 287.573ZM362.88 241.92C359.04 241.92 356.053 244.907 356.053 248.747C356.053 252.587 359.04 255.573 362.88 255.573C366.72 255.573 369.707 252.587 369.707 248.747C369.707 244.907 366.72 241.92 362.88 241.92Z" fill="#E8A170"/>
<path fill-rule="evenodd" clip-rule="evenodd" d="M258.389 167.083C272.619 152.832 293.525 149.12 317.227 149.12H408.533C415.808 149.12 422.613 149.589 428.565 150.293L428.693 150.315C446.955 152.661 462.656 159.147 472.917 173.717C482.56 187.435 485.333 205.525 485.333 225.92V408.533C485.333 432.213 481.6 453.12 467.349 467.371C453.12 481.621 432.213 485.333 408.533 485.333H317.227C293.525 485.333 272.64 481.621 258.389 467.371C244.139 453.12 240.427 432.235 240.427 408.533V225.92C240.427 202.24 244.139 181.333 258.389 167.083ZM281.003 189.696C276.267 194.453 272.427 203.968 272.427 225.92V408.533C272.427 430.507 276.267 440 281.003 444.736C285.76 449.472 295.253 453.333 317.227 453.333H408.533C430.485 453.333 439.979 449.493 444.736 444.736C449.493 439.979 453.333 430.485 453.333 408.533V225.92C453.333 207.275 450.539 197.547 446.741 192.149C443.584 187.648 437.952 183.787 424.683 182.059C419.323 181.43 413.93 181.116 408.533 181.12H317.227C295.253 181.12 285.76 184.939 281.003 189.696ZM362.88 241.92C359.125 241.92 356.053 244.992 356.053 248.747C356.053 252.501 359.125 255.573 362.88 255.573C366.613 255.573 369.707 252.501 369.707 248.747C369.707 244.992 366.613 241.92 362.88 241.92ZM324.053 248.747C324.387 238.672 328.624 229.122 335.869 222.113C343.114 215.104 352.8 211.186 362.88 211.186C372.96 211.186 382.646 215.104 389.891 222.113C397.136 229.122 401.373 238.672 401.707 248.747C401.373 258.821 397.136 268.372 389.891 275.38C382.646 282.389 372.96 286.307 362.88 286.307C352.8 286.307 343.114 282.389 335.869 275.38C328.624 268.372 324.387 258.821 324.053 248.747ZM362.88 333.227C355.019 333.238 347.483 336.366 341.924 341.924C336.366 347.483 333.238 355.019 333.227 362.88C333.227 379.221 346.539 392.533 362.88 392.533C379.2 392.533 392.533 379.221 392.533 362.88C392.533 354.197 388.608 346.091 382.187 340.352C376.812 335.742 369.961 333.213 362.88 333.227ZM314.197 325.099C319.331 318.492 325.754 312.999 333.077 308.952C340.4 304.906 348.469 302.391 356.794 301.561C365.119 300.731 373.526 301.603 381.504 304.123C389.482 306.644 396.863 310.761 403.2 316.224L403.371 316.352C416.107 327.68 424.533 344.299 424.533 362.88C424.522 379.228 418.023 394.903 406.463 406.463C394.903 418.023 379.228 424.522 362.88 424.533C346.532 424.522 330.857 418.023 319.297 406.463C307.737 394.903 301.238 379.228 301.227 362.88C301.227 348.736 306.133 335.467 314.197 325.099Z" fill="#E8A170"/>
<path d="M362.88 424.533C328.96 424.533 301.227 396.8 301.227 362.88C301.227 349.227 305.92 335.787 314.24 325.12C319.981 317.684 327.351 311.663 335.783 307.521C344.216 303.379 353.485 301.226 362.88 301.227C377.6 301.227 392.107 306.56 403.2 316.16C416.853 328.32 424.533 345.173 424.533 362.88C424.533 396.8 396.8 424.533 362.88 424.533ZM362.88 333.227C353.707 333.227 345.173 337.493 339.413 344.747C335.36 349.867 333.227 356.267 333.227 362.88C333.227 379.307 346.453 392.533 362.88 392.533C379.307 392.533 392.533 379.307 392.533 362.88C392.533 354.347 388.693 346.24 382.08 340.267C376.96 335.787 369.92 333.227 362.88 333.227ZM362.88 287.573C341.547 287.573 324.053 270.08 324.053 248.747C324.053 227.413 341.547 209.92 362.88 209.92C384.213 209.92 401.707 227.413 401.707 248.747C401.707 270.08 384.213 287.573 362.88 287.573ZM362.88 241.92C359.04 241.92 356.053 244.907 356.053 248.747C356.053 252.587 359.04 255.573 362.88 255.573C366.72 255.573 369.707 252.587 369.707 248.747C369.707 244.907 366.72 241.92 362.88 241.92Z" fill="#E8A170"/>
</svg>
