<svg width="512" height="512" viewBox="0 0 512 512" fill="none" xmlns="http://www.w3.org/2000/svg">
<g clip-path="url(#clip0_0_3)">
<path d="M256 512C397.385 512 512 397.385 512 256C512 114.615 397.385 0 256 0C114.615 0 0 114.615 0 256C0 397.385 114.615 512 256 512Z" fill="#409B95"/>
<path d="M392.475 322.06V311.846C392.462 301.788 388.46 292.146 381.347 285.036C374.233 277.926 364.59 273.928 354.532 273.92C344.471 273.925 334.824 277.921 327.706 285.031C320.589 292.142 316.582 301.785 316.567 311.846V331.362C316.61 336.419 315.651 341.435 313.746 346.119C311.841 350.804 309.026 355.065 305.466 358.656C301.905 362.248 297.668 365.098 293 367.044C288.332 368.989 283.324 369.99 278.267 369.99C273.21 369.99 268.202 368.989 263.534 367.044C258.866 365.098 254.629 362.248 251.068 358.656C247.508 355.065 244.693 350.804 242.788 346.119C240.883 341.435 239.924 336.419 239.967 331.362V259.64C240.695 259.542 241.42 259.469 242.146 259.329L322.786 244.047C324.07 243.803 325.228 243.118 326.06 242.11C326.892 241.102 327.345 239.835 327.341 238.528C327.316 230.629 327.291 225.911 327.263 221.19C327.24 217.223 327.218 213.23 327.196 207.364L364.172 189.385V222.145H358.245C356.95 222.145 355.696 222.594 354.695 223.415C353.694 224.236 353.008 225.378 352.754 226.647L347.927 250.786C347.764 251.599 347.784 252.437 347.985 253.241C348.186 254.044 348.562 254.793 349.088 255.434C349.613 256.075 350.274 256.591 351.022 256.945C351.771 257.3 352.589 257.484 353.418 257.484H387.211C388.039 257.484 388.857 257.3 389.606 256.945C390.355 256.591 391.016 256.075 391.541 255.434C392.066 254.793 392.443 254.044 392.643 253.241C392.844 252.437 392.864 251.599 392.702 250.786L387.88 226.65C387.626 225.381 386.941 224.238 385.939 223.417C384.938 222.597 383.684 222.148 382.389 222.148H375.389V178.868C375.382 178.235 375.268 177.607 375.05 177.012C374.784 175.9 374.286 174.856 373.588 173.95C372.89 173.044 372.009 172.295 371.002 171.753L238.111 102.406C236.948 101.785 235.651 101.458 234.333 101.455C233.015 101.452 231.716 101.773 230.551 102.389L97.8729 171.787C96.625 172.455 95.5741 173.439 94.8253 174.64C94.0765 175.841 93.6559 177.218 93.6055 178.632C93.555 180.047 93.8765 181.45 94.5379 182.702C95.1992 183.953 96.1773 185.009 97.3745 185.765C97.5033 185.846 97.6321 185.921 97.7665 185.991C105.147 189.85 113.371 193.75 121.32 197.516C128.172 200.764 135.186 204.105 141.645 207.4C141.707 213.84 141.729 228.7 141.729 238.542C141.729 239.845 142.184 241.108 143.015 242.113C143.846 243.117 145.001 243.8 146.282 244.044L226.628 259.323C227.339 259.458 228.053 259.531 228.767 259.629V331.362C228.865 344.425 234.124 356.921 243.396 366.123C252.669 375.326 265.203 380.491 278.267 380.491C291.331 380.491 303.865 375.326 313.138 366.123C322.41 356.921 327.669 344.425 327.767 331.362V311.846C327.767 304.75 330.586 297.945 335.603 292.928C340.62 287.91 347.425 285.092 354.521 285.092C361.616 285.092 368.421 287.91 373.439 292.928C378.456 297.945 381.275 304.75 381.275 311.846V322.055C374.004 323.37 367.425 327.194 362.684 332.861C357.942 338.528 355.339 345.679 355.327 353.067V379.007C355.327 387.371 358.65 395.392 364.564 401.306C370.478 407.22 378.5 410.543 386.864 410.543C395.228 410.543 403.249 407.22 409.163 401.306C415.077 395.392 418.4 387.371 418.4 379.007V353.067C418.387 345.683 415.786 338.536 411.05 332.871C406.313 327.206 399.74 323.381 392.475 322.06ZM377.8 233.348L380.39 246.287H360.255L362.842 233.348H377.8ZM126.116 187.4C120.217 184.6 114.166 181.733 108.476 178.885L234.314 113.057L360.314 178.812L320.84 197.998C292.497 191.588 263.53 188.346 234.471 188.332H234.3C205.217 188.337 176.224 191.573 147.856 197.981C140.954 194.431 133.424 190.858 126.116 187.4ZM228.722 248.319L152.926 233.905V221.207C152.926 216.867 152.898 212.527 152.876 209.273V208.38C179.629 202.515 206.937 199.549 234.325 199.532H234.49C261.903 199.56 289.232 202.544 316.004 208.433C316.024 213.753 316.043 217.514 316.066 221.252C316.088 224.99 316.108 228.661 316.13 233.908L240.062 248.325C236.316 249.037 232.468 249.035 228.722 248.319ZM366.527 353.067C366.535 348.652 367.977 344.359 370.637 340.835C373.297 337.31 377.031 334.746 381.275 333.529V356.114H366.527V353.067ZM407.2 379.007C407.2 384.4 405.057 389.573 401.244 393.387C397.43 397.2 392.257 399.343 386.864 399.343C381.47 399.343 376.297 397.2 372.484 393.387C368.67 389.573 366.527 384.4 366.527 379.007V367.314H407.2V379.007ZM407.2 356.114H392.475V333.537C396.714 334.758 400.442 337.322 403.097 340.845C405.753 344.367 407.193 348.656 407.2 353.067V356.114Z" fill="white"/>
</g>
<defs>
<clipPath id="clip0_0_3">
<rect width="512" height="512" fill="white"/>
</clipPath>
</defs>
</svg>
