<svg xmlns="http://www.w3.org/2000/svg" version="1.1" xmlns:xlink="http://www.w3.org/1999/xlink"
    xmlns:svgjs="http://svgjs.com/svgjs" width="512" height="512" x="0" y="0" viewBox="0 0 24 24"
    style="enable-background:new 0 0 512 512" xml:space="preserve" class="">
    <g>
        <g data-name="Layer 2">
            <path
                d="M14 21.75H3A1.752 1.752 0 0 1 1.25 20V4A1.752 1.752 0 0 1 3 2.25h10A1.752 1.752 0 0 1 14.75 4v17a.75.75 0 0 1-.75.75zm-11-18a.25.25 0 0 0-.25.25v16a.25.25 0 0 0 .25.25h10.25V4a.25.25 0 0 0-.25-.25z"
                fill="#419b93" data-original="#000000"></path>
            <path
                d="M20 21.75h-6a.75.75 0 0 1-.75-.75V6a.75.75 0 0 1 1.085-.671l7.447 3.724a1.74 1.74 0 0 1 .968 1.565V19A2.752 2.752 0 0 1 20 21.75zm-5.25-1.5H20A1.252 1.252 0 0 0 21.25 19v-8.382a.248.248 0 0 0-.138-.223L14.75 7.213zM10.5 21.75h-5a.75.75 0 0 1-.75-.75v-4.5A1.252 1.252 0 0 1 6 15.25h4a1.252 1.252 0 0 1 1.25 1.25V21a.75.75 0 0 1-.75.75zm-4.25-1.5h3.5v-3.5h-3.5z"
                fill="#419b93" data-original="#000000"></path>
            <path
                d="M19 12.75h-2a.75.75 0 0 1 0-1.5h2a.75.75 0 0 1 0 1.5zM19 15.75h-2a.75.75 0 0 1 0-1.5h2a.75.75 0 0 1 0 1.5zM19 18.75h-2a.75.75 0 0 1 0-1.5h2a.75.75 0 0 1 0 1.5zM10.5 13.25h-1a.75.75 0 0 1 0-1.5h1a.75.75 0 0 1 0 1.5zM10.5 7.25h-1a.75.75 0 0 1 0-1.5h1a.75.75 0 0 1 0 1.5zM10.5 10.25h-1a.75.75 0 0 1 0-1.5h1a.75.75 0 0 1 0 1.5zM6.5 13.25h-1a.75.75 0 0 1 0-1.5h1a.75.75 0 0 1 0 1.5zM6.5 7.25h-1a.75.75 0 0 1 0-1.5h1a.75.75 0 0 1 0 1.5zM6.5 10.25h-1a.75.75 0 0 1 0-1.5h1a.75.75 0 0 1 0 1.5z"
                fill="#419b93" data-original="#000000"></path>
        </g>
    </g>
</svg>