<svg xmlns="http://www.w3.org/2000/svg" version="1.1" xmlns:xlink="http://www.w3.org/1999/xlink" xmlns:svgjs="http://svgjs.com/svgjs" width="512" height="512" x="0" y="0" viewBox="0 0 591.92 591.92" style="enable-background:new 0 0 512 512" xml:space="preserve" class=""><g><path d="M82.6 384.02a15 15 0 0 1-15-15v-107a15 15 0 0 1 30 0v107a15 15 0 0 1-15 15zM150.19 145.1a72.55 72.55 0 1 1 72.55-72.55 72.63 72.63 0 0 1-72.55 72.55zm0-115.1a42.55 42.55 0 1 0 42.55 42.55A42.6 42.6 0 0 0 150.19 30zM386.72 257.32a15 15 0 0 1-11.19-25l81.5-91.36a15.01 15.01 0 0 1 22.39 20l-81.5 91.31a15 15 0 0 1-11.2 5.05z" fill="#588b73" data-original="#000000" class=""></path><path d="M546.92 392.77H277.79a15 15 0 0 1 0-30h269.13a15 15 0 0 0 15-15V45.34a15 15 0 0 0-15-15H252.66a15 15 0 0 1 0-30h294.26a45 45 0 0 1 45 45v302.43a45 45 0 0 1-45 45zM150.19 591.93H82.6a15 15 0 0 1-15-15V369.02a15 15 0 0 1 30 0v192.91h52.59a15 15 0 1 1 0 30z" fill="#588b73" data-original="#000000" class=""></path><path d="M217.79 591.93h-67.6a15 15 0 0 1-15-15V377.77a15 15 0 0 1 30 0v184.16h37.6v-283.6a31.47 31.47 0 0 1 53.73-22.25l23.51 23.48a18.67 18.67 0 0 0 13.29 5.5h69.81a18.8 18.8 0 0 0 18.8-19.19c-.21-10.15-8.94-18.4-19.46-18.4h-55.19a15 15 0 0 1-10.6-4.4l-32.29-32.28a62.79 62.79 0 0 0-44.72-18.52h-11.64l-22.67 18.85a55 55 0 0 1-70.31 0l-22.69-18.85H82.6a52.66 52.66 0 0 0-52.6 52.6 15 15 0 0 1-30 0 82.69 82.69 0 0 1 82.6-82.6h15.18a15 15 0 0 1 9.59 3.47l26.84 22.31a25 25 0 0 0 32 0l26.82-22.32a15 15 0 0 1 9.59-3.47h17.07a92.62 92.62 0 0 1 65.93 27.31l27.9 27.9h49c26.74 0 48.92 21.44 49.45 47.8a48.8 48.8 0 0 1-48.79 49.79h-69.9a48.46 48.46 0 0 1-34.5-14.29l-23.47-23.5a1.5 1.5 0 0 0-1.49-.37 1.47 1.47 0 0 0-1 1.4v298.6a15 15 0 0 1-15.03 15.03z" fill="#588b73" data-original="#000000" class=""></path><path d="M48.8 417.82A48.85 48.85 0 0 1 0 369.02V244.86a15 15 0 0 1 30 0v124.16a18.8 18.8 0 1 0 37.6 0 15 15 0 0 1 30 0 48.85 48.85 0 0 1-48.8 48.8zM472.03 591.93h-457a15 15 0 0 1 0-30h457a15 15 0 0 1 0 30zM390.43 165.95h-77.77a15 15 0 0 1 0-30h77.77a15 15 0 0 1 0 30zM468.2 98.14H312.66a15 15 0 0 1 0-30H468.2a15 15 0 0 1 0 30z" fill="#588b73" data-original="#000000" class=""></path></g></svg>