<svg xmlns="http://www.w3.org/2000/svg" version="1.1" xmlns:xlink="http://www.w3.org/1999/xlink" xmlns:svgjs="http://svgjs.com/svgjs" width="512" height="512" x="0" y="0" viewBox="0 0 512 512" style="enable-background:new 0 0 512 512" xml:space="preserve" class=""><g><linearGradient id="a" x1="84.679" x2="404.429" y1="427.321" y2="107.571" gradientUnits="userSpaceOnUse"><stop stop-opacity="1" stop-color="#fe983d" offset="0"></stop><stop stop-opacity="1" stop-color="#f5f5f5" offset="0"></stop><stop stop-opacity="1" stop-color="#f5f5f5" offset="0.052"></stop><stop stop-opacity="1" stop-color="#f5f5f5" offset="0.1396604754760895"></stop><stop stop-opacity="1" stop-color="#f5f5f5" offset="0.3788579950752732"></stop><stop stop-opacity="1" stop-color="#f5f5f5" offset="0.49845675487486496"></stop></linearGradient><circle cx="256" cy="256" r="225" fill="url(#a)" data-original="url(#a)" class=""></circle><g fill="#fff"><path d="M303.8 131h-95.5c-42.6 0-77.2 34.6-77.2 77.2v95.5c0 42.6 34.6 77.2 77.2 77.2h95.5c42.6 0 77.2-34.6 77.2-77.2v-95.5c0-42.6-34.6-77.2-77.2-77.2zm49.3 172.8c0 27.2-22.1 49.4-49.4 49.4h-95.5c-27.2 0-49.4-22.1-49.4-49.4v-95.5c0-27.2 22.1-49.4 49.4-49.4h95.5c27.2 0 49.4 22.1 49.4 49.4z" fill="#000000" data-original="#ffffff" class=""></path><path d="M256 192.1c-35.2 0-63.9 28.7-63.9 63.9s28.7 63.9 63.9 63.9 63.9-28.7 63.9-63.9-28.7-63.9-63.9-63.9zm0 102.7c-21.4 0-38.8-17.4-38.8-38.8s17.4-38.8 38.8-38.8 38.8 17.4 38.8 38.8-17.4 38.8-38.8 38.8z" fill="#000000" data-original="#ffffff" class=""></path><circle cx="323.1" cy="188.4" r="10.8" transform="rotate(-9.25 323.353 188.804)" fill="#000000" data-original="#ffffff" class=""></circle></g></g></svg>