<svg width="236" height="279" viewBox="0 0 236 279" fill="none" xmlns="http://www.w3.org/2000/svg">
<g clip-path="url(#clip0_4_29)">
<path d="M51.6344 157.683V229.177H131.866C153.314 229.177 183.898 222.028 183.898 195.813C183.898 170.791 153.314 157.683 131.866 157.683H51.6344ZM51.6344 47.6625V111.61H131.866C164.833 111.61 175.557 97.7081 175.557 81.8206C175.557 69.1106 165.23 47.6625 131.866 47.6625H51.6344ZM131.866 0C186.678 0 227.588 24.6256 227.588 80.6291C227.588 102.077 217.262 122.731 191.444 134.249C224.014 144.179 235.929 178.734 235.929 196.211C235.929 258.172 189.458 278.031 131.866 278.031H-2.28882e-05V0H131.866Z" fill="#419B93"/>
</g>
<defs>
<clipPath id="clip0_4_29">
<rect width="235.929" height="278.031" fill="white"/>
</clipPath>
</defs>
</svg>
