<svg width="460" height="66" viewBox="0 0 460 66" fill="none" xmlns="http://www.w3.org/2000/svg">
<path d="M14.8182 35.4613V51.5395H33.1818C38.0909 51.5395 45.0909 49.9317 45.0909 44.0364C45.0909 38.409 38.0909 35.4613 33.1818 35.4613H14.8182ZM14.8182 10.7188V25.0998H33.1818C40.7273 25.0998 43.1818 21.9735 43.1818 18.4006C43.1818 15.5422 40.8182 10.7188 33.1818 10.7188H14.8182ZM33.1818 0C45.7272 0 55.0909 5.53804 55.0909 18.1326C55.0909 22.9561 52.7272 27.6009 46.8182 30.1913C54.2727 32.4243 57 40.1955 57 44.1257C57 58.0601 46.3636 62.5263 33.1818 62.5263H3V0H33.1818Z" fill="#419B93"/>
<g clip-path="url(#clip0_2_28)">
<path d="M68 38.0933V28.6959H98.9613V38.0933H68ZM152.661 11.6629L143.851 16.1939C141.837 12.8376 136.3 9.64919 129.923 9.64919C121.7 9.64919 117.756 13.0893 117.756 17.4525C117.756 22.5707 123.798 23.9971 130.846 24.8362C143.096 26.3465 154.507 29.5349 154.507 43.5472C154.507 56.6366 142.928 62.2583 129.839 62.2583C117.84 62.2583 108.611 58.5664 104.247 47.8264L113.477 43.0438C116.078 49.5046 122.875 52.3574 130.007 52.3574C136.971 52.3574 143.515 49.9241 143.515 43.5472C143.515 38.0094 137.726 35.744 129.923 34.9049C117.924 33.4785 106.849 30.2901 106.849 17.1168C106.849 5.03436 118.763 0.0839041 129.587 -1.90735e-06C138.733 -1.90735e-06 148.214 2.60109 152.661 11.6629ZM178.253 60.748V12.0825H159.625V2.01374H207.955V12.0825H189.328V60.748H178.253ZM261.32 60.748L256.369 49.6724H225.659L220.625 60.748H208.627L234.973 2.01374H247.056L273.402 60.748H261.32ZM251.922 39.3519L241.014 14.3479L230.106 39.3519H251.922ZM283.974 60.748V12.0825H265.347V2.01374H313.677V12.0825H295.05V60.748H283.974ZM331.465 60.748H320.473V2.01374H331.465V60.748ZM371.236 0.839058C391.458 0.839058 401.527 16.3617 401.359 31.7165C401.191 46.9035 391.877 62.0905 371.236 62.0905C350.596 62.0905 341.03 47.2391 341.03 31.8004C341.03 16.3617 350.931 0.839058 371.236 0.839058ZM371.236 10.9078C357.392 10.9078 351.686 22.0673 351.938 31.9682C352.19 41.6174 357.392 51.9378 371.236 51.9378C385.081 51.9378 390.283 41.5335 390.451 31.8843C390.619 21.9834 385.081 10.9078 371.236 10.9078ZM448.094 38.429V1.92984H459.17V60.748H452.29V60.8319L421.412 21.1443V60.748H410.337V2.01374H419.315L448.094 38.429Z" fill="black"/>
</g>
<defs>
<clipPath id="clip0_2_28">
<rect width="391.17" height="62.2583" fill="white" transform="translate(68)"/>
</clipPath>
</defs>
</svg>
