<svg width="512" height="512" viewBox="0 0 512 512" fill="none" xmlns="http://www.w3.org/2000/svg">
<g clip-path="url(#clip0_1_22)">
<path d="M256 512C397.385 512 512 397.385 512 256C512 114.615 397.385 0 256 0C114.615 0 0 114.615 0 256C0 397.385 114.615 512 256 512Z" fill="#409B95"/>
<path d="M316.581 423.078L269.439 301.813L276.362 298.657C297.249 289.081 308.646 266.252 303.748 243.805C298.85 221.359 278.975 205.356 256 205.356C233.023 205.356 213.151 221.359 208.253 243.805C203.352 266.252 214.749 289.081 235.636 298.657L242.559 301.812L195.417 423.078L187.78 419.922C120.521 392.381 76.6385 326.842 76.7997 254.159C76.7997 155.397 157.235 74.9618 256 74.9618C354.763 74.9618 435.198 155.397 435.198 254.159C435.359 326.842 391.48 392.381 324.217 419.922L316.581 423.078ZM290.007 309.753L325.643 401.491C382.695 374.65 419.057 317.213 418.908 254.159C418.908 164.357 345.802 91.2516 256 91.2516C166.195 91.2516 93.0895 164.357 93.0895 254.159C92.9437 317.213 129.303 374.65 186.358 401.491L221.992 309.753C197.096 294.521 185.364 264.594 193.275 236.503C201.189 208.409 226.815 189.003 256 189.003C285.186 189.003 310.812 208.41 318.723 236.503C326.634 264.594 314.902 294.521 290.006 309.753H290.007Z" fill="white"/>
</g>
<defs>
<clipPath id="clip0_1_22">
<rect width="512" height="512" fill="white"/>
</clipPath>
</defs>
</svg>
