<svg width="512" height="512" viewBox="0 0 512 512" fill="none" xmlns="http://www.w3.org/2000/svg">
<g clip-path="url(#clip0_1_26)">
<path d="M255.939 15.9297C114.616 15.9017 0.0280044 130.444 4.8869e-06 271.767C-0.0179948 364.083 49.6881 449.252 130.075 494.641C131.29 495.342 132.634 495.791 134.027 495.964C135.419 496.136 136.832 496.027 138.182 495.644C140.889 494.889 143.189 493.095 144.581 490.652L223.513 351.156C226.408 346.03 224.604 339.528 219.481 336.628C183.528 316.434 170.752 270.917 190.947 234.964C211.141 199.011 256.657 186.235 292.611 206.429C328.564 226.624 341.34 272.14 321.145 308.094C314.433 320.044 304.561 329.916 292.611 336.628C287.488 339.528 285.684 346.03 288.579 351.156L367.298 490.652C368.685 493.103 370.986 494.905 373.697 495.665C374.627 495.935 375.589 496.071 376.556 496.07C378.396 496.068 380.204 495.59 381.804 494.683C504.889 425.241 548.374 269.165 478.932 146.079C433.54 65.6278 348.313 15.8837 255.939 15.9297Z" fill="#409B95"/>
</g>
<defs>
<clipPath id="clip0_1_26">
<rect width="512" height="512" fill="white"/>
</clipPath>
</defs>
</svg>
