<svg width="512" height="512" viewBox="0 0 512 512" fill="none" xmlns="http://www.w3.org/2000/svg">
<rect x="81" y="104" width="349" height="303" fill="white"/>
<path d="M256 16C208.532 16 162.131 30.0758 122.663 56.4473C83.1953 82.8188 52.4339 120.302 34.2689 164.156C16.1039 208.01 11.3511 256.266 20.6115 302.822C29.872 349.377 52.7298 392.141 86.2944 425.706C119.859 459.27 162.623 482.128 209.178 491.388C255.734 500.649 303.99 495.896 347.844 477.731C391.698 459.566 429.181 428.805 455.553 389.337C481.924 349.869 496 303.468 496 256C495.922 192.372 470.611 131.373 425.619 86.3809C380.627 41.3891 319.628 16.0783 256 16ZM250.32 387.44H113.12C108.585 387.421 104.242 385.611 101.035 382.405C97.8287 379.198 96.0189 374.855 96 370.32V284.4H107.44L250.32 284.56V387.44ZM250.32 273.12L107.44 272.96H96V181.68H250.32V273.12ZM416 370.32C415.981 374.855 414.171 379.198 410.965 382.405C407.758 385.611 403.415 387.421 398.88 387.44H261.68V376L261.76 181.68H277.52L322 203.92C322.793 204.328 323.669 204.547 324.56 204.56H416V370.32ZM416 193.12H325.92L281.44 170.88C280.642 170.497 279.765 170.305 278.88 170.32H96V141.68C96.0189 137.145 97.8287 132.802 101.035 129.595C104.242 126.389 108.585 124.579 113.12 124.56H398.88C403.415 124.579 407.758 126.389 410.965 129.595C414.171 132.802 415.981 137.145 416 141.68V193.12ZM159.2 367.36H201.92C204.036 367.355 206.12 366.844 207.999 365.869C209.878 364.895 211.496 363.486 212.72 361.76C220.48 349.68 207.2 335.2 197.04 329.76C199.851 326.579 201.685 322.654 202.32 318.457C202.955 314.26 202.365 309.968 200.62 306.098C198.876 302.228 196.051 298.944 192.486 296.64C188.92 294.336 184.765 293.111 180.52 293.111C176.275 293.111 172.12 294.336 168.554 296.64C164.989 298.944 162.164 302.228 160.42 306.098C158.675 309.968 158.085 314.26 158.72 318.457C159.355 322.654 161.189 326.579 164 329.76C149.28 336.48 134.64 363.92 159.2 367.36ZM191.12 315.12C191.12 317.931 190.003 320.627 188.015 322.615C186.027 324.603 183.331 325.72 180.52 325.72C177.709 325.72 175.013 324.603 173.025 322.615C171.037 320.627 169.92 317.931 169.92 315.12C169.92 312.309 171.037 309.613 173.025 307.625C175.013 305.637 177.709 304.52 180.52 304.52C183.331 304.52 186.027 305.637 188.015 307.625C190.003 309.613 191.12 312.309 191.12 315.12ZM203.68 353.76C203.774 353.986 203.802 354.234 203.759 354.475C203.717 354.716 203.606 354.94 203.44 355.12C203.264 355.36 203.036 355.558 202.773 355.696C202.509 355.835 202.218 355.911 201.92 355.92H159.2C157.68 355.76 157.2 355.04 157.36 353.76C159.051 348.968 162.187 344.819 166.335 341.884C170.483 338.95 175.439 337.374 180.52 337.374C185.601 337.374 190.557 338.95 194.705 341.884C198.853 344.819 201.989 348.968 203.68 353.76ZM159.2 264.48H201.92C204.039 264.493 206.13 263.989 208.012 263.014C209.893 262.038 211.509 260.619 212.72 258.88C220.48 246.88 207.2 232.32 197.04 226.88C199.851 223.699 201.685 219.774 202.32 215.577C202.955 211.38 202.365 207.088 200.62 203.218C198.876 199.348 196.051 196.064 192.486 193.76C188.92 191.456 184.765 190.23 180.52 190.23C176.275 190.23 172.12 191.456 168.554 193.76C164.989 196.064 162.164 199.348 160.42 203.218C158.675 207.088 158.085 211.38 158.72 215.577C159.355 219.774 161.189 223.699 164 226.88C149.28 233.6 134.64 261.04 159.2 264.48ZM191.12 212.32C191.12 215.131 190.003 217.827 188.015 219.815C186.027 221.803 183.331 222.92 180.52 222.92C177.709 222.92 175.013 221.803 173.025 219.815C171.037 217.827 169.92 215.131 169.92 212.32C169.92 209.509 171.037 206.813 173.025 204.825C175.013 202.837 177.709 201.72 180.52 201.72C183.331 201.72 186.027 202.837 188.015 204.825C190.003 206.813 191.12 209.509 191.12 212.32ZM203.68 250.88C203.773 251.119 203.799 251.38 203.757 251.633C203.715 251.886 203.605 252.124 203.44 252.32C203.252 252.547 203.021 252.735 202.76 252.873C202.499 253.01 202.214 253.094 201.92 253.12H159.2C157.68 252.88 157.2 252.24 157.36 250.88C159.051 246.088 162.187 241.939 166.335 239.004C170.483 236.07 175.439 234.494 180.52 234.494C185.601 234.494 190.557 236.07 194.705 239.004C198.853 241.939 201.989 246.088 203.68 250.88ZM313.44 290.72C305.35 293.823 298.044 298.673 292.043 304.923C286.041 311.174 281.492 318.671 278.72 326.88C277.803 329.744 277.574 332.783 278.052 335.752C278.53 338.72 279.701 341.534 281.47 343.966C283.239 346.397 285.556 348.377 288.233 349.745C290.911 351.113 293.873 351.831 296.88 351.84H372.72C375.806 351.83 378.846 351.085 381.587 349.666C384.328 348.247 386.691 346.195 388.48 343.68C401.28 324.16 373.52 296.64 356.24 290.72C361.923 286.267 366.075 280.153 368.118 273.228C370.161 266.304 369.993 258.915 367.638 252.09C365.282 245.266 360.857 239.346 354.978 235.156C349.099 230.966 342.059 228.714 334.84 228.714C327.621 228.714 320.581 230.966 314.702 235.156C308.823 239.346 304.398 245.266 302.042 252.09C299.687 258.915 299.519 266.304 301.562 273.228C303.605 280.153 307.757 286.267 313.44 290.72ZM380.16 330.56C380.505 331.66 380.59 332.824 380.41 333.962C380.229 335.1 379.788 336.181 379.12 337.12C378.386 338.131 377.424 338.955 376.312 339.525C375.2 340.095 373.969 340.395 372.72 340.4H296.88C295.632 340.385 294.405 340.081 293.295 339.512C292.184 338.943 291.221 338.124 290.48 337.12C289.805 336.184 289.365 335.099 289.198 333.957C289.031 332.815 289.141 331.65 289.52 330.56C292.752 321.108 298.858 312.903 306.985 307.093C315.111 301.283 324.851 298.16 334.84 298.16C344.829 298.16 354.569 301.283 362.695 307.093C370.822 312.903 376.928 321.108 380.16 330.56ZM358.16 263.44C358.16 269.625 355.703 275.556 351.33 279.93C346.956 284.303 341.025 286.76 334.84 286.76C328.655 286.76 322.724 284.303 318.35 279.93C313.977 275.556 311.52 269.625 311.52 263.44C311.52 257.255 313.977 251.324 318.35 246.95C322.724 242.577 328.655 240.12 334.84 240.12C341.025 240.12 346.956 242.577 351.33 246.95C355.703 251.324 358.16 257.255 358.16 263.44ZM384.56 170.48C382.29 170.48 380.112 169.578 378.507 167.973C376.902 166.368 376 164.19 376 161.92C376 159.65 376.902 157.472 378.507 155.867C380.112 154.262 382.29 153.36 384.56 153.36C386.83 153.36 389.008 154.262 390.613 155.867C392.218 157.472 393.12 159.65 393.12 161.92C393.12 164.19 392.218 166.368 390.613 167.973C389.008 169.578 386.83 170.48 384.56 170.48ZM350.32 170.48C348.05 170.48 345.872 169.578 344.267 167.973C342.662 166.368 341.76 164.19 341.76 161.92C341.76 159.65 342.662 157.472 344.267 155.867C345.872 154.262 348.05 153.36 350.32 153.36C352.59 153.36 354.768 154.262 356.373 155.867C357.978 157.472 358.88 159.65 358.88 161.92C358.88 164.19 357.978 166.368 356.373 167.973C354.768 169.578 352.59 170.48 350.32 170.48ZM316 170.48C313.73 170.48 311.552 169.578 309.947 167.973C308.342 166.368 307.44 164.19 307.44 161.92C307.44 159.65 308.342 157.472 309.947 155.867C311.552 154.262 313.73 153.36 316 153.36C318.27 153.36 320.448 154.262 322.053 155.867C323.658 157.472 324.56 159.65 324.56 161.92C324.56 164.19 323.658 166.368 322.053 167.973C320.448 169.578 318.27 170.48 316 170.48Z" fill="url(#paint0_linear_1_34)"/>
<defs>
<linearGradient id="paint0_linear_1_34" x1="16" y1="256" x2="496" y2="256" gradientUnits="userSpaceOnUse">
<stop stop-color="#409B95"/>
<stop offset="0.502315" stop-color="#409B95"/>
<stop offset="1" stop-color="#409B95"/>
</linearGradient>
</defs>
</svg>
