<svg width="512" height="512" viewBox="0 0 512 512" fill="none" xmlns="http://www.w3.org/2000/svg">
<g clip-path="url(#clip0_6_69)">
<path d="M451.648 0.356018C425.871 3.06802 394.858 20.228 356.837 52.816C288.051 111.774 206.91 213.572 154.652 286.816C116.494 280.865 76.277 297.184 52.465 326.949C8.758 381.584 45.347 430.34 4.12 473.811C-3.059 481.38 -0.498003 493.816 9.1 497.925C76.547 526.801 162.764 508.804 203.209 466.157C227.927 440.094 241.376 401.617 234.62 365.395C306.901 309.933 406.767 224.439 463.32 153.51C494.636 114.233 510.528 82.638 511.904 56.92C513.759 22.273 486.87 -3.34598 451.648 0.356018ZM181.443 445.511C154.081 474.361 93.544 491.165 39.676 476.798C69.796 428.755 43.905 385.674 75.89 345.692C102.136 312.884 154.924 303.699 185.599 334.375C221.438 370.218 204.744 420.941 181.443 445.511ZM184.513 296.67C191.867 286.503 203.4 270.805 217.803 252.011L267.023 301.235C248.898 316.141 233.76 328.095 223.946 335.729C215.104 319.85 201.42 305.621 184.513 296.67ZM481.948 55.316C478.58 118.32 338.106 241.337 290.151 281.937L236.366 228.147C275.824 178.187 391.627 36.835 454.788 30.193C471.639 28.418 482.818 39.051 481.948 55.316Z" fill="#70B5EC"/>
</g>
<defs>
<clipPath id="clip0_6_69">
<rect width="512" height="512" fill="white"/>
</clipPath>
</defs>
</svg>
