<svg xmlns="http://www.w3.org/2000/svg" version="1.1" xmlns:xlink="http://www.w3.org/1999/xlink" xmlns:svgjs="http://svgjs.com/svgjs" width="512" height="512" x="0" y="0" viewBox="0 0 24 24" style="enable-background:new 0 0 512 512" xml:space="preserve" class=""><circle r="12" cx="12" cy="12" fill="#588b73" shape="circle"></circle><g transform="matrix(0.7,0,0,0.7,3.5999998569488536,3.6000000000000014)"><path d="M4.7 17.7c-1-1.1-1.6-2.3-1.6-4.3 0-3.5 2.5-6.6 6-8.2l.9 1.3c-3.3 1.8-4 4.1-4.2 5.6.5-.3 1.2-.4 1.9-.3 1.8.2 3.2 1.6 3.2 3.5 0 .9-.4 1.8-1 2.5-.7.7-1.5 1-2.5 1-1.1 0-2.1-.5-2.7-1.1zm10 0c-1-1.1-1.6-2.3-1.6-4.3 0-3.5 2.5-6.6 6-8.2l.9 1.3c-3.3 1.8-4 4.1-4.2 5.6.5-.3 1.2-.4 1.9-.3 1.8.2 3.2 1.6 3.2 3.5 0 .9-.4 1.8-1 2.5s-1.5 1-2.5 1c-1.1 0-2.1-.5-2.7-1.1z" fill="#ffffff" data-original="#000000" class=""></path></g></svg>