<svg xmlns="http://www.w3.org/2000/svg" version="1.1" xmlns:xlink="http://www.w3.org/1999/xlink" xmlns:svgjs="http://svgjs.com/svgjs" width="512" height="512" x="0" y="0" viewBox="0 0 24 24" style="enable-background:new 0 0 512 512" xml:space="preserve" class=""><g><path d="m5.574 15.362-1.267 7.767a.751.751 0 0 0 1.103.777L12 20.264l6.59 3.643a.748.748 0 0 0 1.103-.778l-1.267-7.767 5.36-5.494a.75.75 0 0 0-.423-1.265l-7.378-1.127L12.678.432c-.247-.526-1.11-.526-1.357 0L8.015 7.476.637 8.603a.75.75 0 0 0-.424 1.265zm3.063-6.464a.75.75 0 0 0 .565-.422L12 2.515l2.798 5.96a.747.747 0 0 0 .565.422l6.331.967-4.605 4.72a.75.75 0 0 0-.204.645l1.08 6.617-5.602-3.096a.755.755 0 0 0-.726 0l-5.602 3.096 1.08-6.617a.75.75 0 0 0-.204-.645l-4.605-4.72z" fill="#ffc107" data-original="#000000" class=""></path></g></svg>