<svg xmlns="http://www.w3.org/2000/svg" version="1.1" xmlns:xlink="http://www.w3.org/1999/xlink" xmlns:svgjs="http://svgjs.com/svgjs" width="512" height="512" x="0" y="0" viewBox="0 0 24 24" style="enable-background:new 0 0 512 512" xml:space="preserve" class=""><circle r="12" cx="12" cy="12" fill="#f5f5f5" shape="circle"></circle><g transform="matrix(0.7,0,0,0.7,3.597852265834808,3.599787712097168)"><path fill="#000000" d="M.522 17.874c.49 1.738 1.989 2.056 2.089 2.117 2.467.672 16.295.674 18.799 0 1.715-.496 2.03-2.017 2.089-2.117.653-3.474.696-8.003-.03-11.945l.03.196c-.49-1.738-1.989-2.056-2.089-2.117-2.434-.661-16.298-.686-18.799 0C.896 4.505.581 6.025.522 6.125c-.699 3.651-.734 7.84 0 11.749zm9.086-2.223V8.358l6.266 3.652z" data-original="#e53935" class=""></path></g></svg>